<?xml version="1.0" encoding="UTF-8"?>
<svg xmlns="http://www.w3.org/2000/svg" xmlns:xlink="http://www.w3.org/1999/xlink" width="50pt" height="50pt" viewBox="0 0 50 50" version="1.1">
<g id="surface1">
<path style=" stroke:none;fill-rule:nonzero;fill:rgb(0%,0%,0%);fill-opacity:1;" d="M 12.273438 12.304688 C 11.734375 12.304688 11.296875 12.742188 11.296875 13.28125 C 11.296875 13.820312 11.734375 14.257812 12.273438 14.257812 C 12.8125 14.257812 13.25 13.820312 13.25 13.28125 C 13.25 12.742188 12.8125 12.304688 12.273438 12.304688 Z M 12.273438 12.304688 "/>
<path style=" stroke:none;fill-rule:nonzero;fill:rgb(0%,0%,0%);fill-opacity:1;" d="M 21.0625 30.566406 L 18.132812 30.566406 L 18.132812 27.636719 C 18.132812 27.097656 17.695312 26.660156 17.15625 26.660156 C 16.617188 26.660156 16.179688 27.097656 16.179688 27.636719 L 16.179688 30.566406 L 13.25 30.566406 C 12.710938 30.566406 12.273438 31.003906 12.273438 31.542969 C 12.273438 32.082031 12.710938 32.519531 13.25 32.519531 L 16.179688 32.519531 L 16.179688 35.449219 C 16.179688 35.988281 16.617188 36.425781 17.15625 36.425781 C 17.695312 36.425781 18.132812 35.988281 18.132812 35.449219 L 18.132812 32.519531 L 21.0625 32.519531 C 21.601562 32.519531 22.039062 32.082031 22.039062 31.542969 C 22.039062 31.003906 21.601562 30.566406 21.0625 30.566406 Z M 21.0625 30.566406 "/>
<path style=" stroke:none;fill-rule:nonzero;fill:rgb(0%,0%,0%);fill-opacity:1;" d="M 47.417969 31.445312 C 45.261719 27.703125 40.488281 26.425781 36.75 28.585938 L 32.78125 30.875 L 32.78125 22.394531 C 32.78125 21.347656 32.433594 20.304688 31.804688 19.464844 L 26.921875 12.953125 L 26.921875 10.183594 C 28.058594 9.78125 28.875 8.695312 28.875 7.421875 L 28.875 2.929688 C 28.875 1.3125 27.5625 0 25.945312 0 L 8.367188 0 C 6.753906 0 5.4375 1.3125 5.4375 2.929688 L 5.4375 7.421875 C 5.4375 8.695312 6.257812 9.78125 7.390625 10.183594 L 7.390625 12.957031 L 2.507812 19.464844 C 1.878906 20.304688 1.535156 21.347656 1.535156 22.394531 L 1.535156 41.304688 C 1.535156 44 3.722656 46.1875 6.414062 46.1875 L 22.109375 46.1875 C 24.300781 49.859375 29.019531 51.085938 32.722656 48.949219 L 44.5625 42.113281 C 48.265625 39.976562 49.589844 35.203125 47.417969 31.445312 Z M 7.390625 2.929688 C 7.390625 2.390625 7.832031 1.953125 8.367188 1.953125 L 25.945312 1.953125 C 26.484375 1.953125 26.921875 2.390625 26.921875 2.929688 L 26.921875 7.421875 C 26.921875 7.960938 26.484375 8.398438 25.945312 8.398438 L 8.367188 8.398438 C 7.832031 8.398438 7.390625 7.960938 7.390625 7.421875 Z M 4.074219 20.636719 L 9.148438 13.867188 C 9.277344 13.699219 9.34375 13.492188 9.34375 13.28125 L 9.34375 10.351562 L 24.96875 10.351562 L 24.96875 12.304688 L 16.179688 12.304688 C 15.640625 12.304688 15.203125 12.742188 15.203125 13.28125 C 15.203125 13.820312 15.640625 14.257812 16.179688 14.257812 L 25.457031 14.257812 L 30.242188 20.636719 C 30.554688 21.054688 30.75 21.554688 30.808594 22.070312 L 3.507812 22.070312 C 3.566406 21.554688 3.761719 21.054688 4.074219 20.636719 Z M 6.414062 44.234375 C 4.800781 44.234375 3.488281 42.921875 3.488281 41.304688 L 3.488281 40.320312 L 21.226562 40.320312 C 20.917969 41.585938 20.921875 42.9375 21.273438 44.234375 Z M 21.992188 38.375 L 3.488281 38.375 L 3.488281 24.023438 L 30.828125 24.023438 L 30.828125 32 L 24.910156 35.421875 C 23.675781 36.132812 22.675781 37.148438 21.992188 38.375 Z M 31.746094 47.257812 C 28.941406 48.878906 25.359375 47.921875 23.742188 45.117188 C 22.113281 42.285156 23.101562 38.71875 25.886719 37.109375 L 31.1875 34.050781 L 37.046875 44.199219 Z M 43.585938 40.421875 L 38.738281 43.222656 L 32.878906 33.074219 L 37.726562 30.277344 C 40.527344 28.65625 44.109375 29.617188 45.726562 32.421875 C 47.355469 35.238281 46.367188 38.816406 43.585938 40.421875 Z M 43.585938 40.421875 "/>
</g>
</svg>
